<svg version="1" xmlns="http://www.w3.org/2000/svg" width="346.667" height="346.667" viewBox="0 0 260.000000 260.000000"><path d="M0 130.5V164h40.7l24.4-25.8c13.4-14.1 27.7-29.2 31.8-33.5l7.4-7.7H0v33.5zm22-2.5v15h17.1l-.3 2.7-.3 2.8-11.7.3-11.8.3V113h7v15zM88.4 123.2c-13.7 14.5-28 29.6-31.8 33.5l-6.9 7.3H183v-21h-12v-6h12v-8.9l-5.7-.3c-5.7-.3-5.8-.3-5.8-3.3s.1-3 5.8-3.3l5.7-.3V97h-69.8l-24.8 26.2zm44.5 2.6c2.4 6.7 4.8 11.9 5.2 11.5.3-.5 2.6-6.1 5-12.6l4.4-11.7h8.5v36h-7l-.1-12.3v-12.2l-4.6 12.2c-6.4 17.1-7.4 16.9-14.4-2.7l-3.4-9.5-.3 12.2-.3 12.3H119v-36.1l4.7.3 4.7.3 4.5 12.3zM190 109v12h10v7h-10v9h5c4.9 0 5 .1 5 3s-.1 3-5 3h-5v21h70V97h-70v12zm45.9 21.4c3.3 9.6 6.1 17.8 6.1 18.1 0 .3-1.4.5-3.2.3-2.7-.2-3.4-.9-4.2-3.6l-.9-3.2h-15.4l-.9 3.2c-.8 2.8-1.5 3.4-4.3 3.6-1.8.2-3.2-.1-3-.6.2-.5 3.1-8.7 6.4-18.1l6-17.1h7.2l6.2 17.4z"/><path d="M223.6 127.7c-1 3.2-2.1 6.4-2.3 7-.4 1 .9 1.3 4.7 1.3 3.6 0 5-.4 4.8-1.3-1.3-4.9-4.3-12.7-4.8-12.7-.3 0-1.4 2.6-2.4 5.7z"/></svg>