<?xml version="1.0" standalone="no"?>
<!DOCTYPE svg PUBLIC "-//W3C//DTD SVG 20010904//EN"
 "http://www.w3.org/TR/2001/REC-SVG-20010904/DTD/svg10.dtd">
<svg version="1.0" xmlns="http://www.w3.org/2000/svg"
 width="260.000000pt" height="260.000000pt" viewBox="0 0 260.000000 260.000000"
 preserveAspectRatio="xMidYMid meet">
<metadata>
Created by potrace 1.11, written by Peter Selinger 2001-2013
</metadata>
<g transform="translate(0.000000,260.000000) scale(0.100000,-0.100000)"
fill="#000000" stroke="none">
<path d="M0 1302 l0 -997 278 1 c152 1 282 2 287 3 11 1 15 605 4 616 -4 3
-81 6 -173 6 l-166 1 0 89 0 89 28 1 c15 0 91 0 170 0 78 0 143 4 143 7 1 4 2
68 3 143 l1 136 -155 1 c-85 0 -163 1 -172 1 -16 1 -18 12 -18 89 l0 89 166 0
c91 1 168 4 172 8 4 4 7 166 7 361 l0 354 -287 0 -288 0 0 -998z"/>
<path d="M779 2283 c0 -10 -1 -172 -2 -360 l-2 -343 30 -1 c17 0 85 -1 153 -1
l122 0 0 -91 0 -92 -152 0 -151 0 0 -110 c1 -60 2 -124 2 -142 l1 -32 113 0
c61 0 129 0 150 0 l37 -1 0 -90 0 -89 -97 0 c-54 0 -123 0 -153 0 l-55 -1 1
-303 c1 -167 3 -308 7 -313 3 -5 380 -9 909 -9 l903 0 3 998 2 997 -910 0
c-860 0 -910 -1 -911 -17z m1251 -643 c38 -107 116 -330 175 -495 58 -165 108
-307 110 -315 2 -8 8 -27 13 -42 l11 -26 -102 1 -101 2 -34 101 -35 101 -201
1 c-111 0 -209 -1 -218 -4 -11 -3 -28 -38 -49 -103 l-32 -98 -94 0 c-68 0 -93
3 -93 12 0 7 40 127 89 266 208 591 270 765 276 780 5 14 23 16 112 15 l105
-1 68 -195z"/>
<path d="M1842 1573 c-17 -42 -142 -415 -142 -423 0 -4 69 -7 153 -6 95 1 151
5 150 11 -1 6 -36 108 -76 228 -69 201 -75 215 -85 190z"/>
</g>
</svg>
